<svg xmlns="http://www.w3.org/2000/svg" viewBox="0 0 1440 320"><path fill="#0099ff" fill-opacity="1" d="M0,192L20,192C40,192,80,192,120,165.3C160,139,200,85,240,74.7C280,64,320,96,360,122.7C400,149,440,171,480,165.3C520,160,560,128,600,106.7C640,85,680,75,720,96C760,117,800,171,840,197.3C880,224,920,224,960,202.7C1000,181,1040,139,1080,128C1120,117,1160,139,1200,144C1240,149,1280,139,1320,149.3C1360,160,1400,192,1420,208L1440,224L1440,0L1420,0C1400,0,1360,0,1320,0C1280,0,1240,0,1200,0C1160,0,1120,0,1080,0C1040,0,1000,0,960,0C920,0,880,0,840,0C800,0,760,0,720,0C680,0,640,0,600,0C560,0,520,0,480,0C440,0,400,0,360,0C320,0,280,0,240,0C200,0,160,0,120,0C80,0,40,0,20,0L0,0Z"></path></svg>